<?xml version="1.0" standalone="no"?><!DOCTYPE svg PUBLIC "-//W3C//DTD SVG 1.1//EN" "http://www.w3.org/Graphics/SVG/1.1/DTD/svg11.dtd"><svg t="1647656685773" class="icon" viewBox="0 0 1024 1024" version="1.1" xmlns="http://www.w3.org/2000/svg" p-id="2614" xmlns:xlink="http://www.w3.org/1999/xlink" width="200" height="200"><defs><style type="text/css">@font-face { font-family: feedback-iconfont; src: url("//at.alicdn.com/t/font_1031158_u69w8yhxdu.woff2?t=1630033759944") format("woff2"), url("//at.alicdn.com/t/font_1031158_u69w8yhxdu.woff?t=1630033759944") format("woff"), url("//at.alicdn.com/t/font_1031158_u69w8yhxdu.ttf?t=1630033759944") format("truetype"); }
</style></defs><path d="M156.067661 575.164364c14.53433-5.997175 30.409205-9.383815 47.095463-9.383815h59.442588c-4.480243-19.04985-7.126055-38.840528-7.126055-59.372033-0.211665-142.450546 114.510766-257.031867 256.820202-256.573259 142.379991 0.493885 255.938264 114.157991 256.008819 256.291039 0 20.60206-2.610535 40.49857-7.126055 59.654253H820.907431c16.580425 0 32.384745 3.351363 46.84852 9.277983 1.164158-6.173563 2.222483-12.347125 3.069143-18.62652 12.029628-89.216798-5.36218-172.930306-55.597341-248.24777-67.626968-101.387536-163.687601-155.009336-284.724704-164.393151V120.296276c10.971303-1.481655 24.97647 0.670273 30.444483-5.185793 5.92662-6.34995 4.162745-20.108175 5.009405-30.656147 0.740828-8.995763-4.727185-13.087953-13.26434-13.087953-26.034795-0.070555-52.034313-0.035278-78.104386 0-8.219658 0-12.6999 3.774693-12.664623 12.347125 0.105833 7.549385 0.105833 15.09877 0 22.648155-0.105833 8.60771 4.550798 12.27657 12.664623 12.347125 6.20884 0.035278 12.452958 0 18.62652 0v25.435078c-104.421401 6.984945-190.886554 49.071003-257.843249 128.022048-67.062528 79.056878-94.226203 171.378096-83.572398 274.423675 0.98777 9.630758 2.504703 19.155683 4.268577 28.574775z m335.806525-13.54656c-10.477418 0-23.14204-2.328315-37.67637-6.949667-14.499053-4.586075-27.340063-10.830193-38.0997-18.520688l-12.206016-8.74882v38.38192H601.128604c6.455783-11.676853 9.842423-24.658973 9.842423-39.016915 0-21.060668-6.843835-39.052193-20.284563-53.480691-13.087953-14.005168-34.00751-26.211183-63.993385-37.323595-32.31419-12.064905-44.02632-19.296793-48.153788-23.212595-5.291625-5.009405-7.866883-11.676853-7.866883-20.284563s3.704138-15.169325 11.676853-20.707892c8.642988-5.997175 20.813725-9.03104 36.26527-9.03104 23.882868 0 46.037138 6.49106 65.827816 19.261515l11.923795 7.690495v-67.380026l-4.550798-2.046095c-20.249285-9.136873-43.567713-13.758225-69.355565-13.758225-34.219175 0-62.688118 8.360768-84.560168 24.870638-22.5776 17.003755-34.00751 39.122748-34.007511 65.651428 0 21.272333 6.103008 39.22858 18.132636 53.33958 11.85324 13.899335 31.89086 25.96424 61.277018 36.970821 23.247873 8.642988 39.828298 16.298205 49.3885 22.85982 8.04327 5.50329 11.782685 12.241293 11.782685 21.201777-0.035278 12.98212-5.468013 30.232818-52.598753 30.232818z m328.997968 65.933648h-617.70903c-34.113343 0-61.770903 27.65756-61.770903 61.770903v216.215799c0 34.113343 27.65756 61.770903 61.770903 61.770903h617.70903c34.113343 0 61.770903-27.65756 61.770902-61.770903V689.322355c0-34.113343-27.65756-61.770903-61.770902-61.770903z m-90.451511 39.440245h61.171185l13.017398 15.839598-13.017398 15.275158h-61.171185l-13.017398-15.275158 13.017398-15.839598z m-29.668378 35.771386l12.629345-15.839598 12.629345 15.839598v72.354153l-25.293967 18.167912v-90.522065z m-103.962793-35.771386h61.171185l13.017398 15.839598-13.017398 15.275158h-61.171185l-13.017398-15.275158 13.017398-15.839598z m-29.668378 35.771386l12.629345-15.839598 12.629345 15.839598v72.354153l-25.293967 18.167912v-90.522065z m-200.693699-35.771386h61.171186l13.017397 15.839598-13.017397 15.275158h-61.171186l-13.017397-15.275158 13.017397-15.839598z m-29.668378 35.771386l12.629346-15.839598 12.629345 15.839598v72.354153l-25.293968 18.167912v-90.522065z m-103.962793-35.771386h61.171186l13.017397 15.839598-13.017397 15.275158H232.796224l-13.017397-15.275158 13.017397-15.839598z m-29.668378 35.771386l12.629346-15.839598 12.629345 15.839598v72.354153l-25.293968 18.167912v-90.522065z m0 188.664071v-90.522066l25.293968 15.839598v74.682468l-12.629345 15.839598-12.664623-15.839598z m90.839564 36.476935H232.796224l-13.017397-15.839597 13.017397-15.275158h61.171186l13.017397 15.275158-13.017397 15.839597z m29.174492-36.476935l-12.629345 15.839598-12.629345-15.839598v-74.576636l25.293968-15.839597v90.416233z m0-98.142006l-25.293967-18.167912v-72.248321l12.629345-15.839597 12.629345 15.839597v90.416233z m13.617115 98.142006v-90.522066l25.293968 15.839598v74.682468l-12.629345 15.839598-12.664623-15.839598z m90.839564 36.476935h-61.171186l-13.017397-15.839597 13.017397-15.275158h61.171186l13.017397 15.275158-13.017397 15.839597z m29.174492-36.476935l-12.629345 15.839598-12.629345-15.839598v-74.576636l25.293968-15.839597v90.416233z m0-98.142006l-25.293967-18.167912v-72.248321l12.629345-15.839597 12.629345 15.839597v90.416233z m69.038068 63.605333h-27.622282v-27.622282h27.622282v27.622282z m0-91.404003h-27.622282v-27.622283h27.622282v27.622283z m41.309953 125.940676v-90.522066l25.293968 15.839598v74.682468l-12.629345 15.839598-12.664623-15.839598z m90.839563 36.476935h-61.171185l-13.017398-15.839597 13.017398-15.275158h61.171185l13.017398 15.275158-13.017398 15.839597z m29.280326-36.476935l-12.629346 15.839598-12.629345-15.839598v-74.576636l25.293968-15.839597v90.416233z m0-98.142006l-25.293968-18.167912v-72.248321l12.629345-15.839597 12.629345 15.839597v90.416233z m13.511282 98.142006v-90.522066l25.293968 15.839598v74.682468l-12.629345 15.839598-12.664623-15.839598z m90.839563 36.476935h-61.171185l-13.017398-15.839597 13.017398-15.275158h61.171185l13.017398 15.275158-13.017398 15.839597z m29.280326-36.476935l-12.629346 15.839598-12.629345-15.839598v-74.576636l25.293968-15.839597v90.416233z m0-98.142006l-25.293968-18.167912v-72.248321l12.629345-15.839597 12.629345 15.839597v90.416233z" fill="#333333" p-id="2615"></path></svg>